PathFileType	4	(X/Y/Z)	5_coords_data.trc
DataRate	CameraRate	NumFrames	NumMarkers	Units	OrigDataRate	OrigDataStartFrame	OrigNumFrames
30.0	30.0	6	21	m	30.0	49	68
Frame#	Time	THUMB_TIP	THUMB_IP	THUMB_MCP	THUMB_CMC	INDEX_TIP	INDEX_DIP	INDEX_PIP	INDEX_MCP	MIDDLE_TIP	MIDDLE_DIP	MIDDLE_PIP	MIDDLE_MCP	RING_TIP	RING_DIP	RING_PIP	RING_MCP	PINKY_TIP	PINKY_DIP	PINKY_PIP	PINKY_MCP	WRIST
X1	Y1	Z1	X2	Y2	Z2	X3	Y3	Z3	X4	Y4	Z4	X5	Y5	Z5	X6	Y6	Z6	X7	Y7	Z7	X8	Y8	Z8	X9	Y9	Z9	X10	Y10	Z10	X11	Y11	Z11	X12	Y12	Z12	X13	Y13	Z13	X14	Y14	Z14	X15	Y15	Z15	X16	Y16	Z16	X17	Y17	Z17	X18	Y18	Z18	X19	Y19	Z19	X20	Y20	Z20	X21	Y21	Z21
48	1.6	-0.009844420433044433	-0.14307000732421876	1.027260009765625	-0.017998500823974608	-0.1221719970703125	1.0399300537109375	-0.03477239990234375	-0.11103399658203125	1.0635799560546875	-0.040964099884033205	-0.08069090270996093	1.07493994140625	-0.02692650032043457	-0.10931999969482421	0.9435020141601562	-0.03550930023193359	-0.10750399780273437	0.9645490112304688	-0.04498300170898437	-0.10462699890136719	0.9860059814453125	-0.055071800231933594	-0.09832250213623046	1.0211099853515626	0.011552100181579589	-0.08845899963378906	0.9537069702148437	-0.006183800220489502	-0.08748370361328126	0.9688699951171875	-0.02925429916381836	-0.08478489685058593	0.9866240234375	-0.056125900268554685	-0.07799620056152344	1.015760009765625	0.01734119987487793	-0.06701470184326172	0.96597802734375	-0.002405709981918335	-0.06392679977416992	0.9757069702148438	-0.02704249954223633	-0.06136840057373047	0.9884439697265625	-0.052650901794433595	-0.059436798095703125	1.01797998046875	-0.011881999969482422	-0.03729520034790039	0.9635780029296875	-0.02360420036315918	-0.03798669815063477	0.9798770141601563	-0.03369810104370117	-0.0397052001953125	0.9957369995117188	-0.04362099838256836	-0.04311569976806641	1.0206300048828125	-0.05887979888916016	-0.05041230010986328	1.0894200439453126
49	1.6333333333333333	-0.0188026008605957	-0.14561900329589844	1.02702001953125	-0.02387980079650879	-0.1239010009765625	1.03981005859375	-0.03995719909667969	-0.11105699920654297	1.062550048828125	-0.04318650054931641	-0.07969090270996093	1.0748499755859375	-0.026076400756835937	-0.102322998046875	0.9399569702148437	-0.03376150131225586	-0.10133899688720703	0.9615189819335938	-0.042371799468994144	-0.0991780014038086	0.9834039916992188	-0.052293800354003904	-0.09399500274658203	1.01847998046875	0.003225950002670288	-0.07858149719238282	0.9400079956054688	-0.011005200386047364	-0.07908429718017577	0.9592349853515625	-0.03008049964904785	-0.07791600036621094	0.9818489990234375	-0.05165309906005859	-0.07329010009765625	1.0136400146484374	0.0096287202835083	-0.05609149932861328	0.9507540283203125	-0.006946599960327148	-0.05463779830932617	0.966791015625	-0.02736669921875	-0.05374100112915039	0.9854940185546875	-0.04789889907836914	-0.05479079818725586	1.01697998046875	-0.008427209854125976	-0.028438699722290038	0.964635009765625	-0.019605800628662108	-0.030625600814819336	0.9813400268554687	-0.029346500396728516	-0.03356010055541992	0.9969959716796875	-0.0393921012878418	-0.038891399383544925	1.021219970703125	-0.05949599838256836	-0.04885929870605469	1.0891500244140624
50	1.6666666666666667	-0.025764699935913085	-0.146218994140625	1.026300048828125	-0.028877799987792968	-0.12413999938964844	1.03927001953125	-0.0437411003112793	-0.10982599639892578	1.0612900390625	-0.044935699462890624	-0.07826020050048828	1.0743900146484375	-0.025154499053955077	-0.09716510009765625	0.9379459838867188	-0.03241559982299805	-0.09664689636230468	0.959823974609375	-0.04091669845581054	-0.09487090301513672	0.9817739868164063	-0.05085029983520508	-0.09024459838867188	1.01677001953125	-0.0021762499809265127	-0.0699363021850586	0.9335070190429687	-0.014156900405883788	-0.07195220184326172	0.9545369873046875	-0.030364700317382812	-0.07215360260009765	0.9794840087890625	-0.04888610076904297	-0.06948419952392579	1.0123400268554688	0.0040278000831604	-0.047956600189208984	0.9438820190429688	-0.009919750213623046	-0.04791590118408203	0.96285400390625	-0.027194200515747072	-0.048402099609375	0.9843140258789063	-0.044519798278808594	-0.051283000946044925	1.0164099731445313	-0.0072588400840759276	-0.022771799087524414	0.9647429809570313	-0.01779170036315918	-0.025824499130249024	0.98197802734375	-0.02697330093383789	-0.02946579933166504	0.9977080078125	-0.0364463005065918	-0.03584619903564453	1.0217100219726563	-0.05992240142822266	-0.04716329956054687	1.08925
51	1.7	-0.03234960174560547	-0.14518499755859374	1.0244300537109374	-0.033551998138427734	-0.12309500122070313	1.0378399658203126	-0.0469099006652832	-0.10788600158691407	1.0598800048828125	-0.0461593017578125	-0.07641290283203125	1.073510009765625	-0.024821100234985353	-0.09326979827880859	0.9365800170898437	-0.03208380126953125	-0.09299240112304688	0.958375	-0.04063330078125	-0.0914354019165039	0.980406982421875	-0.05076259994506836	-0.08712999725341797	1.0156400146484375	-0.005060050010681152	-0.06486260223388672	0.9303140258789062	-0.015595499992370605	-0.06759439849853516	0.9521320190429687	-0.030372800827026366	-0.06834970092773437	0.9779000244140625	-0.04773880004882813	-0.06644770050048829	1.011469970703125	0.0013148499727249142	-0.04371580123901367	0.9406599731445312	-0.010871000289916992	-0.04433219909667969	0.9610280151367188	-0.026298099517822266	-0.04524489974975586	0.9834710083007813	-0.042358898162841795	-0.04860200119018555	1.015719970703125	-0.006167520046234131	-0.019613000869750978	0.9645830078125	-0.016171899795532227	-0.023022600173950195	0.9820139770507812	-0.024966800689697265	-0.026908899307250978	0.9979210205078125	-0.03418960189819336	-0.03357849884033203	1.021719970703125	-0.060022598266601564	-0.0450531005859375	1.0887099609375
52	1.7333333333333334	-0.03680699920654297	-0.14347300720214845	1.022489990234375	-0.03660879898071289	-0.12153900146484375	1.036260009765625	-0.04938169860839844	-0.1057259979248047	1.05856005859375	-0.04696419906616211	-0.07457150268554688	1.0724100341796876	-0.026327699661254884	-0.09008869934082031	0.935041015625	-0.03335490036010742	-0.08997380065917969	0.956947998046875	-0.04165530014038086	-0.088493896484375	0.9791640014648437	-0.05148720169067383	-0.08452359771728515	1.0145700073242188	-0.008929080009460449	-0.06055849838256836	0.9275780029296875	-0.018306800842285156	-0.06385150146484375	0.9500819702148438	-0.031758100509643554	-0.0652333984375	0.9765040283203125	-0.04802159881591797	-0.06385699844360351	1.0106599731445312	-0.002216530084609985	-0.039653800964355466	0.9379199829101562	-0.013024100303649902	-0.040877399444580076	0.9592429809570312	-0.02711109924316406	-0.04235749816894531	0.982573974609375	-0.04211569976806641	-0.04621580123901367	1.0150499877929688	-0.007366030216217041	-0.016480300903320314	0.9633989868164062	-0.016784000396728515	-0.020242900848388673	0.9812730102539062	-0.025109699249267578	-0.02441790008544922	0.9973560180664063	-0.03372529983520508	-0.03152860069274902	1.0211199951171874	-0.0601531982421875	-0.04308280181884765	1.08802001953125
53	1.7666666666666666	-0.04039670181274414	-0.14179600524902344	1.021219970703125	-0.039323299407958985	-0.11987000274658204	1.0351400146484375	-0.0509379997253418	-0.10386199951171875	1.0573900146484374	-0.04825130081176758	-0.07258119964599609	1.0715999755859376	-0.02861160087585449	-0.08788710021972657	0.9336640014648437	-0.03530879974365234	-0.08769159698486328	0.9556669921875	-0.04327149963378906	-0.08620050048828125	0.97797900390625	-0.052732799530029295	-0.08218840026855469	1.0135900268554687	-0.0120108003616333	-0.05764810180664062	0.9256669921875	-0.02074489974975586	-0.06121920013427734	0.9483499755859375	-0.033492298126220704	-0.06288819885253906	0.9750549926757812	-0.04895240020751953	-0.061615898132324216	1.00972998046875	-0.005866429805755615	-0.03689350128173828	0.9355919799804687	-0.015651300430297853	-0.03838600158691406	0.9574539794921875	-0.02873539924621582	-0.04002579879760742	0.9811290283203125	-0.04293539810180664	-0.04407419967651367	1.0139400024414063	-0.009825010299682618	-0.01406369972229004	0.9617670288085938	-0.01864430046081543	-0.017940399169921874	0.9799180297851563	-0.026486499786376953	-0.022199499130249024	0.9961859741210938	-0.034479900360107424	-0.029482900619506838	1.0201900024414063	-0.060675899505615236	-0.04097560119628906	1.0874000244140625
